<svg width="101" height="57" viewBox="0 0 101 57" fill="none" xmlns="http://www.w3.org/2000/svg">
<path fill-rule="evenodd" clip-rule="evenodd" d="M52.1285 3.0628C48.8284 1.55833 44.9216 0.806091 40.4082 0.806091H18.3508V24.7453H30.1439V10.4153H39.753C43.2958 10.4153 45.9893 11.1918 47.8335 12.7448C49.6777 14.2492 50.5998 16.4331 50.5998 19.2965C50.5998 21.4991 50.0352 23.3153 48.906 24.7453H61.8121C62.2963 23.0534 62.5384 21.2371 62.5384 19.2965C62.5384 15.5111 61.6406 12.2352 59.845 9.46892C58.0493 6.70264 55.4772 4.56726 52.1285 3.0628ZM30.1439 39.9113H18.3508V51.7639H30.1439V39.9113Z" fill="#93BDFF"/>
<path d="M13.4613 30.4337C14.2823 30.7026 14.9334 31.1556 15.4147 31.7926C15.896 32.4154 16.1366 33.1939 16.1366 34.1281C16.1366 35.4162 15.6412 36.4142 14.6503 37.1219C13.6595 37.8155 12.2157 38.1623 10.3189 38.1623H2.93005V23.2996H9.89428C11.6495 23.2996 13.0013 23.6464 13.9497 24.34C14.8981 25.0194 15.3722 25.9607 15.3722 27.1639C15.3722 27.9 15.2024 28.5511 14.8627 29.1173C14.5229 29.6835 14.0558 30.1223 13.4613 30.4337ZM5.69026 25.4653V29.5632H9.59703C10.5596 29.5632 11.2956 29.3933 11.8052 29.0536C12.3289 28.6997 12.5908 28.1901 12.5908 27.5249C12.5908 26.8454 12.3289 26.3358 11.8052 25.9961C11.2956 25.6422 10.5596 25.4653 9.59703 25.4653H5.69026ZM10.1491 35.9966C12.2865 35.9966 13.3552 35.2818 13.3552 33.8521C13.3552 32.4225 12.2865 31.7076 10.1491 31.7076H5.69026V35.9966H10.1491ZM29.4863 32.5569C29.4863 32.741 29.4722 33.0028 29.4439 33.3425H20.5475C20.7032 34.1777 21.1066 34.843 21.7577 35.3384C22.423 35.8197 23.244 36.0603 24.2207 36.0603C25.4663 36.0603 26.4925 35.6498 27.2994 34.8288L28.722 36.4637C28.2124 37.0724 27.5683 37.5324 26.7898 37.8438C26.0113 38.1552 25.1337 38.3109 24.157 38.3109C22.9113 38.3109 21.8143 38.0632 20.866 37.5678C19.9176 37.0724 19.1815 36.3858 18.6578 35.5082C18.1482 34.6165 17.8934 33.6115 17.8934 32.4932C17.8934 31.3892 18.1411 30.3983 18.6366 29.5207C19.1461 28.6289 19.8468 27.9353 20.7386 27.4399C21.6303 26.9445 22.6353 26.6968 23.7536 26.6968C24.8577 26.6968 25.8414 26.9445 26.7049 27.4399C27.5825 27.9212 28.2619 28.6077 28.7432 29.4995C29.2386 30.3771 29.4863 31.3962 29.4863 32.5569ZM23.7536 28.82C22.9043 28.82 22.1824 29.0748 21.5879 29.5844C21.0075 30.0798 20.6536 30.7451 20.5262 31.5802H26.9597C26.8464 30.7593 26.4996 30.094 25.9193 29.5844C25.3389 29.0748 24.617 28.82 23.7536 28.82ZM38.8513 37.5466C38.5399 37.8013 38.1577 37.9924 37.7048 38.1198C37.2659 38.2472 36.7988 38.3109 36.3034 38.3109C35.0578 38.3109 34.0952 37.9854 33.4158 37.3342C32.7364 36.6831 32.3966 35.7347 32.3966 34.4891V29.0324H30.5282V26.9091H32.3966V24.3188H35.0507V26.9091H38.0869V29.0324H35.0507V34.4254C35.0507 34.9774 35.1852 35.4021 35.4541 35.6993C35.7231 35.9824 36.1123 36.124 36.6219 36.124C37.2164 36.124 37.7118 35.9683 38.1082 35.6569L38.8513 37.5466ZM45.7571 38.3109C44.6106 38.3109 43.5773 38.0632 42.6572 37.5678C41.7371 37.0724 41.0152 36.3858 40.4915 35.5082C39.9819 34.6165 39.7271 33.6115 39.7271 32.4932C39.7271 31.375 39.9819 30.3771 40.4915 29.4995C41.0152 28.6219 41.7371 27.9353 42.6572 27.4399C43.5773 26.9445 44.6106 26.6968 45.7571 26.6968C46.9178 26.6968 47.9582 26.9445 48.8783 27.4399C49.7984 27.9353 50.5132 28.6219 51.0228 29.4995C51.5465 30.3771 51.8084 31.375 51.8084 32.4932C51.8084 33.6115 51.5465 34.6165 51.0228 35.5082C50.5132 36.3858 49.7984 37.0724 48.8783 37.5678C47.9582 38.0632 46.9178 38.3109 45.7571 38.3109ZM45.7571 36.0391C46.7338 36.0391 47.5407 35.7135 48.1776 35.0624C48.8146 34.4112 49.1331 33.5549 49.1331 32.4932C49.1331 31.4316 48.8146 30.5752 48.1776 29.9241C47.5407 29.273 46.7338 28.9474 45.7571 28.9474C44.7805 28.9474 43.9736 29.273 43.3366 29.9241C42.7138 30.5752 42.4024 31.4316 42.4024 32.4932C42.4024 33.5549 42.7138 34.4112 43.3366 35.0624C43.9736 35.7135 44.7805 36.0391 45.7571 36.0391ZM60.7797 26.6968C62.2094 26.6968 63.3559 27.1144 64.2194 27.9495C65.0828 28.7846 65.5146 30.0232 65.5146 31.6652V38.1623H62.8605V32.0049C62.8605 31.014 62.627 30.2709 62.1598 29.7755C61.6927 29.2659 61.0274 29.0111 60.164 29.0111C59.1873 29.0111 58.4159 29.3084 57.8497 29.9029C57.2835 30.4832 57.0004 31.3255 57.0004 32.4295V38.1623H54.3463V26.8242H56.873V28.2892C57.3118 27.7655 57.8638 27.3692 58.5291 27.1002C59.1944 26.8313 59.9446 26.6968 60.7797 26.6968Z" fill="black"/>
<path d="M37.1815 39.7424C38.2535 39.7424 39.1813 39.9211 39.9651 40.2784C40.7604 40.6357 41.3713 41.1428 41.7978 41.7998C42.2242 42.4568 42.4375 43.2348 42.4375 44.1339C42.4375 45.0214 42.2242 45.7994 41.7978 46.4679C41.3713 47.1249 40.7604 47.6321 39.9651 47.9894C39.1813 48.3352 38.2535 48.5081 37.1815 48.5081H34.7437V51.8449H31.9429V39.7424H37.1815ZM37.0259 46.2259C37.8673 46.2259 38.507 46.0472 38.945 45.6899C39.383 45.3211 39.602 44.8024 39.602 44.1339C39.602 43.4538 39.383 42.9352 38.945 42.5778C38.507 42.209 37.8673 42.0246 37.0259 42.0246H34.7437V46.2259H37.0259ZM47.9142 42.405C49.355 42.405 50.4615 42.7507 51.2338 43.4423C52.006 44.1223 52.3921 45.1539 52.3921 46.5371V51.8449H49.8679V50.6865C49.3608 51.551 48.4156 51.9832 47.0325 51.9832C46.3179 51.9832 45.6954 51.8622 45.1652 51.6201C44.6466 51.3781 44.2489 51.0438 43.9723 50.6173C43.6957 50.1909 43.5573 49.7068 43.5573 49.165C43.5573 48.3006 43.8801 47.6205 44.5255 47.1249C45.1825 46.6293 46.1911 46.3815 47.5512 46.3815H49.695C49.695 45.7936 49.5164 45.3441 49.1591 45.0329C48.8017 44.7102 48.2658 44.5488 47.5512 44.5488C47.0555 44.5488 46.5657 44.6295 46.0816 44.7909C45.609 44.9407 45.2056 45.1482 44.8713 45.4133L43.9031 43.5288C44.4103 43.1714 45.0154 42.8948 45.7185 42.6989C46.4331 42.5029 47.165 42.405 47.9142 42.405ZM47.7068 50.1678C48.1678 50.1678 48.577 50.0641 48.9343 49.8566C49.2916 49.6376 49.5452 49.3206 49.695 48.9057V47.9548H47.8451C46.7386 47.9548 46.1853 48.3179 46.1853 49.044C46.1853 49.3898 46.3179 49.6664 46.583 49.8739C46.8596 50.0698 47.2342 50.1678 47.7068 50.1678ZM57.4093 43.7708C57.732 43.3213 58.1642 42.9813 58.706 42.7507C59.2592 42.5202 59.8932 42.405 60.6078 42.405V44.8946C60.3081 44.8715 60.1064 44.86 60.0027 44.86C59.2304 44.86 58.6253 45.079 58.1873 45.517C57.7493 45.9435 57.5303 46.5889 57.5303 47.4534V51.8449H54.8332V42.5433H57.4093V43.7708ZM68.5317 51.3954C68.2666 51.5913 67.9381 51.7411 67.5462 51.8449C67.1658 51.9371 66.7624 51.9832 66.3359 51.9832C65.2294 51.9832 64.3707 51.7008 63.7598 51.136C63.1605 50.5712 62.8608 49.7414 62.8608 48.6464V44.8254H61.4258V42.7507H62.8608V40.4858H65.5579V42.7507H67.8747V44.8254H65.5579V48.6118C65.5579 49.0037 65.6559 49.3091 65.8518 49.5281C66.0593 49.7356 66.3474 49.8393 66.7163 49.8393C67.1427 49.8393 67.5058 49.7241 67.8055 49.4935L68.5317 51.3954ZM75.6993 42.405C76.8519 42.405 77.7797 42.7507 78.4828 43.4423C79.1975 44.1339 79.5548 45.1597 79.5548 46.5198V51.8449H76.8576V46.9347C76.8576 46.1971 76.6963 45.6496 76.3735 45.2923C76.0508 44.9234 75.584 44.739 74.9731 44.739C74.2931 44.739 73.7513 44.9522 73.3479 45.3787C72.9445 45.7936 72.7428 46.4161 72.7428 47.2459V51.8449H70.0457V42.5433H72.6218V43.6325C72.9791 43.2406 73.4228 42.9409 73.953 42.7334C74.4832 42.5144 75.0653 42.405 75.6993 42.405ZM91.2123 47.2287C91.2123 47.2632 91.195 47.5053 91.1604 47.9548H84.1237C84.2505 48.5311 84.5502 48.9864 85.0228 49.3206C85.4953 49.6549 86.0832 49.822 86.7863 49.822C87.2704 49.822 87.6968 49.7529 88.0657 49.6146C88.446 49.4647 88.7976 49.2342 89.1203 48.923L90.5553 50.479C89.6793 51.4818 88.3999 51.9832 86.7171 51.9832C85.6682 51.9832 84.7404 51.7815 83.9335 51.3781C83.1267 50.9631 82.5043 50.3926 82.0663 49.6664C81.6283 48.9403 81.4093 48.1162 81.4093 47.1941C81.4093 46.2835 81.6225 45.4651 82.049 44.739C82.487 44.0013 83.0806 43.4308 83.8298 43.0274C84.5905 42.6124 85.4377 42.405 86.3713 42.405C87.2819 42.405 88.106 42.6009 88.8437 42.9928C89.5814 43.3847 90.1577 43.9495 90.5726 44.6871C90.9991 45.4133 91.2123 46.2605 91.2123 47.2287ZM86.3886 44.4451C85.7777 44.4451 85.2648 44.618 84.8499 44.9638C84.4349 45.3095 84.1813 45.7821 84.0891 46.3815H88.6708C88.5786 45.7936 88.325 45.3268 87.9101 44.981C87.4951 44.6237 86.988 44.4451 86.3886 44.4451ZM95.7852 43.3458C96.1249 42.8727 96.5799 42.5148 97.1501 42.2721C97.7325 42.0294 98.3998 41.9081 99.152 41.9081V44.5288C98.8366 44.5045 98.6242 44.4924 98.515 44.4924C97.7021 44.4924 97.0652 44.7229 96.6041 45.184C96.1431 45.6329 95.9125 46.3123 95.9125 47.2223V51.8449H93.0735V42.0537H95.7852V43.3458Z" fill="black"/>
</svg>
