<svg width="24" height="24" viewBox="0 0 24 24" fill="none" xmlns="http://www.w3.org/2000/svg">
<path d="M22.8333 17.33V20.58C22.8345 20.8817 22.7727 21.1804 22.6519 21.4568C22.531 21.7332 22.3537 21.9814 22.1314 22.1854C21.9091 22.3893 21.6466 22.5446 21.3608 22.6413C21.075 22.7379 20.7721 22.7738 20.4716 22.7467C17.138 22.3844 13.9359 21.2453 11.1225 19.4208C8.50495 17.7576 6.28575 15.5384 4.62247 12.9208C2.79161 10.0946 1.65223 6.87691 1.29663 3.52834C1.26956 3.22876 1.30517 2.92683 1.40118 2.64176C1.49719 2.3567 1.6515 2.09475 1.8543 1.87259C2.05709 1.65044 2.30392 1.47294 2.57907 1.3514C2.85423 1.22987 3.15167 1.16695 3.45247 1.16667H6.70247C7.22822 1.1615 7.73791 1.34767 8.13654 1.6905C8.53518 2.03332 8.79555 2.5094 8.86913 3.03C9.00631 4.07008 9.26071 5.09129 9.62747 6.07417C9.77322 6.46192 9.80477 6.88333 9.71837 7.28846C9.63196 7.69359 9.43124 8.06546 9.13997 8.36L7.76413 9.73584C9.30632 12.448 11.552 14.6937 14.2641 16.2358L15.64 14.86C15.9345 14.5687 16.3064 14.368 16.7115 14.2816C17.1166 14.1952 17.538 14.2267 17.9258 14.3725C18.9087 14.7393 19.9299 14.9937 20.97 15.1308C21.4962 15.2051 21.9768 15.4701 22.3204 15.8756C22.6639 16.2811 22.8465 16.7987 22.8333 17.33Z" stroke="#93BDFF" stroke-width="2" stroke-linecap="round" stroke-linejoin="round"/>
</svg>
